<svg xmlns="http://www.w3.org/2000/svg" viewBox="0 0 666 320" fill="none"><path d="M755 727c284.43 0 515-230.573 515-515s-230.57-515-515-515S240-72.427 240 212s230.573 515 515 515z" fill="url(#A)" fill-opacity=".2"/><path opacity=".6" d="M720 653c229.198 0 415-185.802 415-415S949.198-177 720-177 305 8.802 305 238s185.802 415 415 415z" stroke="#f5bdda" stroke-dasharray="1 3"/><path d="M341 361c149.117 0 270-120.883 270-270S490.117-179 341-179 71-58.117 71 91s120.883 270 270 270z" fill="url(#B)" fill-opacity=".2"/><path opacity=".6" d="M416 406c229.198 0 415-185.802 415-415S645.198-424 416-424 1-238.198 1-9s185.802 415 415 415z" stroke="#f5bdda" stroke-dasharray="1 3"/><defs><linearGradient id="A" x1="240" y1="-99.971" x2="1443.39" y2="110.248" gradientUnits="userSpaceOnUse"><stop stop-color="#f5bdda"/><stop offset="1" stop-color="#f5bdda" stop-opacity="0"/></linearGradient><linearGradient id="B" x1="71" y1="-72.558" x2="701.902" y2="37.654" gradientUnits="userSpaceOnUse"><stop stop-color="#f5bdda"/><stop offset="1" stop-color="#f5bdda" stop-opacity="0"/></linearGradient></defs></svg>