<svg xmlns="http://www.w3.org/2000/svg" viewBox="0 0 24 23" fill="none"><path fill-rule="evenodd" d="M11.975.037C5.765.037.725 5.14.725 11.43s5.04 11.393 11.25 11.393 11.25-5.104 11.25-11.393S18.185.037 11.975.037zM6.428 18.586c.484-1.025 3.43-2.028 5.546-2.028s5.074 1.003 5.546 2.028a8.81 8.81 0 0 1-5.546 1.96 8.81 8.81 0 0 1-5.546-1.96zm5.546-4.307c1.643 0 5.546.672 7.155 2.655 1.148-1.527 1.845-3.43 1.845-5.503 0-5.024-4.04-9.115-9-9.115s-9 4.1-9 9.115c0 2.074.697 3.976 1.845 5.503 1.61-1.982 5.513-2.655 7.155-2.655zm0-9.684c-2.182 0-3.937 1.777-3.937 3.988s1.755 3.988 3.937 3.988 3.938-1.777 3.938-3.988-1.755-3.988-3.937-3.988zm-1.688 3.988c0 .946.754 1.71 1.688 1.71s1.688-.763 1.688-1.71-.754-1.71-1.687-1.71-1.687.763-1.687 1.71z" fill="currentColor" fill-opacity=".54"/></svg>