<svg xmlns="http://www.w3.org/2000/svg" viewBox="0 0 24 22" fill="none"><path fill-rule="evenodd" d="M11.88 0C5.67 0 .63 4.928.63 11s5.04 11 11.25 11 11.25-4.928 11.25-11S18.09 0 11.88 0zm0 19.8c-4.96 0-9-3.95-9-8.8s4.04-8.8 9-8.8 9 3.95 9 8.8-4.04 8.8-9 8.8zM9.596 8.217c0 .803.64 1.342 2.633 1.837 1.98.506 4.106 1.342 4.118 3.762-.01 1.77-1.36 2.728-3.07 3.047V18.7h-2.633v-1.87c-1.687-.34-3.105-1.397-3.217-3.267H9.36c.1 1.012.8 1.804 2.6 1.804 1.924 0 2.363-.946 2.363-1.53 0-.792-.44-1.55-2.633-2.057-2.44-.572-4.117-1.562-4.117-3.53 0-1.66 1.36-2.74 3.06-3.09V3.3h2.62v1.88c1.822.44 2.745 1.793 2.8 3.267H14.14c-.045-1.078-.63-1.804-2.183-1.804-1.474 0-2.363.65-2.363 1.573z" fill="currentColor" fill-opacity=".54"/></svg>