<svg xmlns="http://www.w3.org/2000/svg" viewBox="0 0 17 17" fill="none"><path fill-rule="evenodd" d="M11.467 10.795h.742l3.98 3.998a.99.99 0 0 1 0 1.398.99.99 0 0 1-1.398 0l-3.99-3.99v-.742l-.253-.263a6.1 6.1 0 0 1-5.012 1.389A6.14 6.14 0 0 1 .524 7.341C.036 3.372 3.377.03 7.347.518a6.14 6.14 0 0 1 5.246 5.012 6.1 6.1 0 0 1-1.389 5.012l.263.253zM2.354 6.572a4.22 4.22 0 0 0 4.223 4.223A4.22 4.22 0 0 0 10.8 6.572a4.22 4.22 0 0 0-4.223-4.223 4.22 4.22 0 0 0-4.223 4.223z" fill="currentColor" fill-opacity=".54"/></svg>