<svg xmlns="http://www.w3.org/2000/svg" viewBox="0 0 24 23" fill="none"><path fill-rule="evenodd" d="M.725 11.55c0-6.29 5.03-11.393 11.24-11.393 6.22 0 11.26 5.104 11.26 11.393s-5.04 11.393-11.26 11.393c-6.2 0-11.24-5.104-11.24-11.393zM16.44 6.994h3.32a9.06 9.06 0 0 0-4.871-4.056c.675 1.265 1.192 2.632 1.552 4.056zm-4.466-4.512c.934 1.367 1.665 2.883 2.15 4.512H9.826c.484-1.63 1.215-3.145 2.15-4.512zm-9 9.07c0 .786.112 1.55.292 2.28H7.07c-.1-.752-.157-1.504-.157-2.28s.067-1.527.157-2.28H3.267c-.18.73-.292 1.493-.292 2.28zM4.2 16.11h3.32c.36 1.424.877 2.79 1.553 4.056C6.99 19.447 5.27 18 4.2 16.11zm0-9.115h3.32c.36-1.424.877-2.79 1.553-4.056-2.07.718-3.79 2.165-4.87 4.056zm7.785 13.626c-.934-1.367-1.665-2.883-2.15-4.512h4.298c-.484 1.63-1.215 3.145-2.15 4.512zm-2.632-6.8h5.265c.1-.752.18-1.504.18-2.28s-.08-1.538-.18-2.28H9.342c-.1.74-.18 1.504-.18 2.28s.08 1.527.18 2.28zm5.546 6.335c.675-1.265 1.192-2.632 1.552-4.056h3.32a9.06 9.06 0 0 1-4.871 4.056zm2.15-8.613c0 .775-.067 1.527-.157 2.28h3.803c.18-.73.292-1.492.292-2.28s-.112-1.55-.292-2.28H16.88c.1.752.157 1.504.157 2.28z" fill="currentColor" fill-opacity=".54"/></svg>