<svg xmlns="http://www.w3.org/2000/svg" viewBox="0 0 20 20" fill="none"><path d="M19.696 3.757c-.728.32-1.505.538-2.323.637.834-.502 1.475-1.294 1.78-2.24-.782.456-1.65.79-2.57.974a4.03 4.03 0 0 0-2.953-1.282c-2.234 0-4.045 1.81-4.045 4.043a4.14 4.14 0 0 0 .104.924C6.324 6.655 3.343 5.04 1.348 2.6.997 3.193.8 3.883.8 4.634c0 1.406.715 2.642 1.8 3.368a4.03 4.03 0 0 1-1.832-.506v.05a4.05 4.05 0 0 0 3.244 3.969c-.34.09-.698.14-1.066.14-.258 0-.506-.025-.753-.07a4.06 4.06 0 0 0 3.786 2.81c-1.38 1.085-3.132 1.73-5.017 1.73A8.58 8.58 0 0 1 0 16.07c1.8 1.146 3.92 1.816 6.214 1.816 7.444 0 11.5-6.163 11.5-11.5 0-.172 0-.345-.012-.518a8.17 8.17 0 0 0 2.023-2.095l-.04-.016z" fill="currentColor"/></svg>