<svg xmlns="http://www.w3.org/2000/svg" viewBox="0 0 349.28 117.4" height="51"><defs><clipPath id="A"><path d="M0 0h349.28v117.4H0z"/></clipPath><clipPath id="B"><path d="M17.2 17.2A58.52 58.52 0 0 0 0 58.55v.3a58.7 58.7 0 1 0 17.19-41.67" fill="none"/></clipPath><linearGradient id="C" y1="115.69" x2="62.269" y2="-.33" gradientUnits="userSpaceOnUse" x1="62.269"><stop offset="0" stop-color="#242c56"/><stop offset=".25" stop-color="#64386d"/><stop offset=".59" stop-color="#b6488a"/><stop offset=".74" stop-color="#d74e96"/><stop offset="1" stop-color="#d74e96"/></linearGradient><clipPath id="D"><path d="M0 0h347.73v117.4H0z" fill="none"/></clipPath></defs><g clip-path="url(#A)" fill="currentColor"><path d="M156.5 40.65a5.19 5.19 0 0 1-5.19 5.19h-.1a5.19 5.19 0 0 1-5.21-5.19v-.1a5.19 5.19 0 0 1 5.19-5.19h.1a5.19 5.19 0 0 1 5.19 5.19zm0 40.2a5.19 5.19 0 0 1-5.19 5.15h-.1a5.19 5.19 0 0 1-5.21-5.15V53.4a5.19 5.19 0 0 1 5.19-5.19h.1a5.19 5.19 0 0 1 5.19 5.19zm39.37 5.52h0a5.36 5.36 0 0 1-5.25-5.37V65.94a9.9 9.9 0 0 0-16.87-7 9.62 9.62 0 0 0-2 3.16 9.72 9.72 0 0 0-.7 3.85V81a5.4 5.4 0 0 1-5.26 5.36h0a5.34 5.34 0 0 1-5.2-5.36V65.94a19.84 19.84 0 0 1 1.52-7.94 20.17 20.17 0 0 1 10.76-10.78 20.54 20.54 0 0 1 15.8 0A20.42 20.42 0 0 1 199.48 58a19.88 19.88 0 0 1 1.61 7.91V81a5.36 5.36 0 0 1-5.22 5.36m29.48-51.23a19.85 19.85 0 0 1 7.9 1.58A20.24 20.24 0 0 1 244 47.49a21.33 21.33 0 0 1 .79 2.32 4.56 4.56 0 0 1-4.29 5.83H239a4.53 4.53 0 0 1-4.23-3.16l-.3-.87a9.7 9.7 0 0 0-5.27-5.32 10 10 0 0 0-10.86 2.1 9.62 9.62 0 0 0-2 3.16 9.73 9.73 0 0 0-.69 3.85v7.05a4.52 4.52 0 0 0 4.31 4.67h15.5a4.35 4.35 0 0 1 4.53 4.25v1.46a4.49 4.49 0 0 1-4.53 4.43h-15.53a4.3 4.3 0 0 0-4.31 4.42v.07a4.74 4.74 0 0 1-4.61 4.62h-1.46a4.56 4.56 0 0 1-4.4-4.63V55.4a19.84 19.84 0 0 1 1.55-7.9 20.17 20.17 0 0 1 10.76-10.78 19.81 19.81 0 0 1 7.9-1.58"/><rect x="249.73" y="35.37" width="10.47" height="51.01" rx="5.19"/><path d="M269.37 45.84h-.08a5 5 0 0 1 5.1 5v15.1a10 10 0 0 0 19.93 0V50.86a5 5 0 0 1 5.16-5h.06a5.1 5.1 0 0 1 5.25 5v15.08a19.92 19.92 0 0 1-1.66 7.91 20.44 20.44 0 0 1-10.83 10.77 20.59 20.59 0 0 1-15.82 0 20.35 20.35 0 0 1-6.48-4.33 20.11 20.11 0 0 1-4.26-6.44 19.79 19.79 0 0 1-1.51-7.91V50.86a5 5 0 0 1 5.11-5m44.66-.02h-.08a5 5 0 0 1 5.1 5v15.1a10 10 0 0 0 17 7 10 10 0 0 0 2.94-7V50.86a5 5 0 0 1 5.16-5h.06a5.1 5.1 0 0 1 5.25 5v15.08a19.92 19.92 0 0 1-1.66 7.91 20.44 20.44 0 0 1-10.84 10.78 20.59 20.59 0 0 1-15.82 0 20.35 20.35 0 0 1-6.45-4.34 20.11 20.11 0 0 1-4.26-6.44 19.79 19.79 0 0 1-1.51-7.91V50.86a5 5 0 0 1 5.11-5"/></g><g clip-path="url(#B)"><path transform="matrix(.999983 -.00576 .00576 .999983 -.35 .36)" d="M-.35-.35H123.5V123.5H-.35z" fill="url(#C)"/></g><g clip-path="url(#D)" fill="#fff"><path d="M83.1 87.1a3.58 3.58 0 1 0-3.58-3.58 3.58 3.58 0 0 0 3.58 3.58M33.22 37.22a3.58 3.58 0 1 0-3.58-3.58 3.58 3.58 0 0 0 3.58 3.58M29.64 48v35.62a3.78 3.78 0 0 0 3.78 3.78h35.13a3.86 3.86 0 0 0 3.9-3.61 3.78 3.78 0 0 0-3.78-4h-28.5a3.27 3.27 0 0 1-3.27-3.27v-28.6a3.63 3.63 0 0 0-3.79-3.62 3.7 3.7 0 0 0-3.47 3.7M44 33.85h0a3.78 3.78 0 0 0 3.78 3.78h28.7a3 3 0 0 1 3 3v28.64a3.625 3.625 0 1 0 7.25 0v-35.4c0-.05 0 0 0 0a3.78 3.78 0 0 0-3.78-3.78H47.78A3.78 3.78 0 0 0 44 33.85m14.22 28.48a3.58 3.58 0 1 0-3.58-3.58 3.58 3.58 0 0 0 3.58 3.58"/></g></svg>