<svg xmlns="http://www.w3.org/2000/svg" viewBox="0 0 86 19" height="19" fill="currentColor"><path d="M13.808 6.024c2.592 0 3.888 1.544 3.888 4.632v6.504c0 .304-.088.544-.264.72-.176.16-.408.24-.696.24s-.528-.08-.72-.24c-.176-.176-.264-.416-.264-.72v-6.456c0-1.072-.192-1.848-.576-2.328s-.984-.72-1.8-.72c-.976 0-1.744.328-2.304.984s-.84 1.544-.84 2.664v5.856c0 .304-.096.544-.288.72-.176.16-.408.24-.696.24s-.52-.08-.696-.24c-.176-.176-.264-.416-.264-.72v-6.456c0-1.072-.192-1.848-.576-2.328s-.992-.72-1.824-.72c-.96 0-1.728.328-2.304.984-.56.656-.84 1.544-.84 2.664v5.856c0 .304-.088.544-.264.72-.176.16-.408.24-.696.24s-.528-.08-.72-.24C.888 17.704.8 17.464.8 17.16V7.032c0-.288.088-.52.264-.696.192-.176.432-.264.72-.264a.91.91 0 0 1 .672.264c.176.16.264.384.264.672V8.16c.352-.688.84-1.216 1.464-1.584s1.344-.552 2.16-.552c1.824 0 3.016.768 3.576 2.304.336-.704.848-1.264 1.536-1.68s1.472-.624 2.352-.624zm8.414 12.096c-.288 0-.528-.08-.72-.24-.176-.176-.264-.416-.264-.72V7.032c0-.304.088-.536.264-.696.192-.176.432-.264.72-.264s.52.088.696.264c.176.16.264.392.264.696V17.16c0 .32-.088.56-.264.72s-.408.24-.696.24zm0-14.568c-.384 0-.696-.112-.936-.336s-.36-.52-.36-.888c0-.352.12-.64.36-.864s.552-.336.936-.336.696.112.936.336.36.512.36.864c0 .368-.12.664-.36.888s-.552.336-.936.336zM36.2.96c.304 0 .544.088.72.264a.91.91 0 0 1 .264.672V17.16c0 .288-.088.52-.264.696s-.416.264-.72.264-.544-.088-.72-.264c-.16-.176-.24-.408-.24-.696v-1.296c-.352.736-.872 1.304-1.56 1.704-.672.4-1.464.6-2.376.6-1.024 0-1.928-.256-2.712-.768s-1.392-1.224-1.824-2.136c-.432-.928-.648-2-.648-3.216 0-1.2.216-2.256.648-3.168s1.04-1.616 1.824-2.112 1.688-.744 2.712-.744c.912 0 1.704.2 2.376.6.688.4 1.208.968 1.56 1.704V1.896c0-.288.08-.512.24-.672.176-.176.416-.264.72-.264zm-4.512 15.6c1.136 0 2.008-.384 2.616-1.152.624-.784.936-1.888.936-3.312s-.312-2.52-.936-3.288c-.608-.768-1.48-1.152-2.616-1.152s-2.024.384-2.664 1.152c-.624.768-.936 1.848-.936 3.24 0 1.424.312 2.536.936 3.336.64.784 1.528 1.176 2.664 1.176zm10.08 1.56c-.288 0-.528-.08-.72-.24-.176-.176-.264-.416-.264-.72V7.032c0-.304.088-.536.264-.696.192-.176.432-.264.72-.264s.52.088.696.264c.176.16.264.392.264.696V17.16c0 .32-.088.56-.264.72s-.408.24-.696.24zm0-14.568c-.384 0-.696-.112-.936-.336s-.36-.52-.36-.888c0-.352.12-.64.36-.864s.552-.336.936-.336.696.112.936.336.36.512.36.864c0 .368-.12.664-.36.888s-.552.336-.936.336zm9.37 2.472c2.928 0 4.392 1.536 4.392 4.608v6.528c0 .288-.088.52-.264.696-.16.176-.384.264-.672.264s-.52-.088-.696-.264-.264-.408-.264-.696v-1.152a3.5 3.5 0 0 1-1.392 1.608c-.624.368-1.344.552-2.16.552-.752 0-1.448-.152-2.088-.456-.624-.304-1.12-.728-1.488-1.272s-.552-1.144-.552-1.8c0-.88.224-1.56.672-2.04.448-.496 1.184-.848 2.208-1.056 1.024-.224 2.448-.336 4.272-.336h.528v-.792c0-.96-.2-1.664-.6-2.112-.384-.448-1.016-.672-1.896-.672-1.088 0-2.192.296-3.312.888-.432.272-.736.408-.912.408-.192 0-.352-.072-.48-.216a.8.8 0 0 1-.192-.552c0-.224.064-.416.192-.576.144-.176.368-.352.672-.528.56-.32 1.192-.568 1.896-.744.72-.192 1.432-.288 2.136-.288zm-.792 10.608c.96 0 1.744-.32 2.352-.96.624-.656.936-1.496.936-2.52v-.696h-.432c-1.408 0-2.48.064-3.216.192-.736.112-1.264.312-1.584.6-.304.272-.456.68-.456 1.224a2.04 2.04 0 0 0 .672 1.56c.464.4 1.04.6 1.728.6zm18.943-.96c.32.304.48.648.48 1.032 0 .368-.136.696-.408.984-.256.288-.56.432-.912.432s-.68-.144-.984-.432L61.85 12.6v4.104c0 .464-.144.816-.432 1.056s-.648.36-1.08.36-.792-.12-1.08-.36c-.272-.24-.408-.592-.408-1.056V2.376c0-.464.136-.816.408-1.056.288-.24.648-.36 1.08-.36s.792.12 1.08.36.432.592.432 1.056V11.4l5.136-4.92c.288-.288.616-.432.984-.432s.688.136.96.408.408.592.408.96-.152.704-.456 1.008l-3.768 3.504 4.176 3.744zm3.915 2.472c-.432 0-.792-.12-1.08-.36-.272-.256-.408-.616-.408-1.08V7.44c0-.464.136-.816.408-1.056.288-.24.648-.36 1.08-.36s.792.12 1.08.36.432.592.432 1.056v9.264c0 .464-.144.824-.432 1.08-.288.24-.648.36-1.08.36zm0-14.256c-.544 0-.976-.144-1.296-.432-.32-.304-.48-.696-.48-1.176s.16-.864.48-1.152.752-.432 1.296-.432c.528 0 .952.144 1.272.432.336.288.504.672.504 1.152s-.16.872-.48 1.176c-.32.288-.752.432-1.296.432zm10.702 12.024c.8.048 1.2.408 1.2 1.08 0 .384-.16.68-.48.888-.304.192-.744.272-1.32.24l-.648-.048c-2.688-.192-4.032-1.632-4.032-4.32V8.52h-1.2c-.432 0-.768-.096-1.008-.288-.224-.192-.336-.472-.336-.84s.112-.648.336-.84c.24-.192.576-.288 1.008-.288h1.2V4.056c0-.432.136-.776.408-1.032s.64-.384 1.104-.384c.448 0 .808.128 1.08.384s.408.6.408 1.032v2.208h2.04c.432 0 .76.096.984.288.24.192.36.472.36.84s-.12.648-.36.84c-.224.192-.552.288-.984.288h-2.04v5.448c0 1.184.544 1.816 1.632 1.896l.648.048z"/></svg>