<?xml version="1.0" standalone="no"?>
<!DOCTYPE svg PUBLIC "-//W3C//DTD SVG 20010904//EN"
 "http://www.w3.org/TR/2001/REC-SVG-20010904/DTD/svg10.dtd">
<svg version="1.0" xmlns="http://www.w3.org/2000/svg"
 width="513.000000pt" height="513.000000pt" viewBox="0 0 513.000000 513.000000"
 preserveAspectRatio="xMidYMid meet">
<metadata>
Created by potrace 1.11, written by Peter Selinger 2001-2013
</metadata>
<g transform="translate(0.000000,513.000000) scale(0.100000,-0.100000)"
fill="#000000" stroke="none">
<path d="M2353 4960 c-1002 -98 -1837 -794 -2099 -1750 -69 -250 -79 -333 -79
-645 0 -227 4 -299 19 -380 29 -161 81 -351 130 -478 246 -637 746 -1137 1381
-1382 134 -52 290 -95 460 -127 107 -20 151 -23 400 -23 304 0 368 7 595 65
737 186 1351 723 1634 1428 119 296 170 566 170 897 0 332 -50 600 -169 894
-322 802 -1036 1361 -1900 1487 -126 18 -421 26 -542 14z m-755 -1246 c91 -54
94 -190 7 -244 -21 -13 -50 -20 -83 -20 -43 0 -57 5 -86 30 -41 36 -61 88 -52
135 8 39 49 93 80 105 35 14 106 11 134 -6z m2044 -9 c71 -48 69 -19 66 -866
l-3 -756 -27 -35 c-33 -43 -84 -63 -142 -55 -31 4 -50 15 -78 46 l-38 40 0
618 c0 580 -2 621 -19 659 -35 77 -9 74 -703 74 -564 0 -616 1 -647 18 -50 25
-74 63 -78 124 -5 62 17 106 69 138 32 19 52 20 798 20 l765 0 37 -25z m-2039
-574 c65 -43 61 -2 67 -701 6 -707 1 -667 73 -710 31 -19 55 -20 645 -20 497
0 619 -3 645 -14 93 -39 122 -162 55 -234 -51 -54 -17 -52 -840 -52 l-763 0
-37 25 c-71 48 -69 18 -66 870 3 735 4 761 23 789 43 64 138 87 198 47z m1007
-439 c48 -24 80 -75 80 -127 0 -155 -217 -197 -275 -53 -49 123 76 240 195
180z m1033 -1020 c40 -24 71 -93 62 -139 -25 -135 -194 -167 -265 -51 -42 69
-15 157 61 196 49 25 92 23 142 -6z"/>
</g>
</svg>
